<?xml version="1.0" standalone="no"?>
<!DOCTYPE svg PUBLIC "-//W3C//DTD SVG 20010904//EN"
 "http://www.w3.org/TR/2001/REC-SVG-20010904/DTD/svg10.dtd">
<svg version="1.0" xmlns="http://www.w3.org/2000/svg"
 width="512.000000pt" height="512.000000pt" viewBox="0 0 512.000000 512.000000"
 preserveAspectRatio="xMidYMid meet">
<metadata>
Created by potrace 1.16, written by Peter Selinger 2001-2019
</metadata>
<g transform="translate(0.000000,512.000000) scale(0.100000,-0.100000)"
fill="#000000" stroke="none">
<path d="M2401 4454 c-52 -7 -95 -15 -97 -17 -2 -1 58 -1 132 1 289 9 551 -55
854 -207 342 -173 540 -351 854 -770 42 -57 91 -128 108 -157 51 -91 47 -68
-10 58 -145 320 -397 614 -697 812 -344 228 -776 334 -1144 280z"/>
<path d="M2345 4329 c-116 -10 -214 -30 -342 -70 -142 -45 -203 -75 -203 -99
0 -27 8 -26 112 16 144 57 301 93 467 105 175 12 175 12 161 39 -12 22 -24 23
-195 9z"/>
<path d="M1675 4113 c-91 -59 -200 -144 -216 -166 -10 -14 1 -42 30 -77 l26
-32 118 88 c64 49 113 90 108 92 -5 2 -40 -1 -78 -6 -37 -5 -70 -8 -71 -7 -2
2 25 25 59 52 79 60 147 123 134 122 -5 0 -55 -29 -110 -66z"/>
<path d="M2335 4123 c-73 -9 -75 -10 -75 -58 0 -24 5 -47 10 -50 6 -4 8 -10 5
-15 -3 -4 7 -6 22 -4 16 3 87 7 159 11 102 4 149 2 215 -11 228 -46 416 -172
489 -328 17 -35 30 -70 30 -79 0 -33 -97 -99 -147 -99 -22 0 -55 16 -110 55
-242 169 -282 193 -332 204 -180 38 -453 -38 -665 -186 -90 -62 -97 -75 -66
-108 13 -14 29 -25 35 -25 6 0 36 18 66 41 77 58 241 136 333 159 94 24 241
27 289 6 18 -7 106 -68 197 -134 188 -138 223 -152 303 -128 27 8 66 26 87 40
l38 25 8 -97 c10 -138 -3 -204 -62 -304 -42 -71 -48 -89 -48 -139 l-1 -58
-144 -140 c-144 -140 -175 -160 -219 -144 -11 5 -70 56 -131 115 l-109 108 10
37 c35 126 -35 259 -171 325 -68 33 -169 30 -246 -7 -76 -36 -143 -103 -181
-180 -26 -54 -29 -70 -29 -160 0 -86 3 -106 24 -145 30 -58 588 -617 652 -654
97 -56 212 -52 311 10 24 15 141 124 260 243 237 236 257 264 258 361 0 76
-32 138 -119 233 -39 42 -71 81 -71 86 0 5 9 19 19 32 18 23 20 23 38 6 19
-16 21 -16 36 0 26 30 64 115 76 171 14 66 14 202 1 272 -6 29 -9 55 -7 56 7
8 162 -223 201 -299 49 -96 92 -238 106 -351 11 -84 29 -125 58 -127 67 -5 75
13 68 151 -9 187 -59 341 -164 510 -54 85 -164 220 -181 220 -4 0 -28 -20 -54
-45 -44 -42 -47 -43 -47 -20 0 13 5 27 10 30 17 11 11 52 -8 57 -11 3 -24 25
-35 60 -70 221 -326 410 -626 462 -86 15 -283 20 -366 9z m-18 -1100 c19 -9
49 -35 65 -57 30 -40 30 -43 24 -129 -8 -117 1 -132 158 -279 142 -133 174
-149 255 -127 40 10 66 33 207 176 l161 164 31 -35 c35 -40 52 -90 45 -132 -8
-43 -314 -346 -368 -365 -26 -9 -83 -14 -160 -14 -176 0 -182 4 -455 266 -122
117 -228 225 -235 239 -50 99 1 236 107 289 52 25 117 27 165 4z m401 -894
c34 0 81 5 103 11 23 6 43 9 46 7 9 -9 -121 -67 -150 -67 -36 0 -107 32 -131
59 -17 19 -16 19 26 4 24 -8 71 -14 106 -14z"/>
<path d="M2143 3920 c-328 -165 -585 -419 -727 -721 -50 -104 -88 -228 -114
-364 -23 -122 -22 -396 1 -520 48 -262 183 -542 344 -716 48 -52 60 -60 87
-57 23 2 33 10 40 30 8 24 3 34 -61 110 -227 270 -337 561 -337 898 0 300 85
564 254 789 120 159 310 313 535 436 84 46 89 47 102 29 12 -17 29 -19 181
-19 147 0 173 -3 217 -21 28 -12 58 -25 67 -29 17 -7 34 17 58 80 9 23 6 27
-30 45 -67 34 -157 50 -290 50 -89 1 -132 5 -150 15 -41 24 -74 17 -177 -35z"/>
<path d="M1379 3723 c-82 -88 -180 -226 -230 -324 -20 -41 -20 -43 -3 -56 10
-7 21 -13 24 -13 4 0 37 46 73 103 37 56 102 145 146 197 44 52 81 100 81 106
0 13 -21 34 -36 34 -6 0 -31 -21 -55 -47z"/>
<path d="M3592 3688 c-18 -18 -15 -26 27 -77 275 -329 420 -902 336 -1330 -35
-180 -121 -383 -226 -531 -108 -153 -282 -303 -455 -392 -116 -60 -175 -82
-314 -119 -151 -40 -377 -51 -541 -25 -58 9 -113 14 -121 11 -9 -4 -29 -31
-45 -61 -22 -43 -25 -56 -15 -63 53 -33 456 -43 635 -16 387 58 722 263 929
567 97 144 208 424 245 620 27 139 24 461 -6 622 -51 284 -179 557 -351 749
-51 57 -75 68 -98 45z"/>
<path d="M987 3243 c-3 -5 -17 -51 -31 -103 -39 -146 -67 -330 -73 -492 -6
-146 -6 -148 16 -148 11 0 21 -4 21 -10 0 -18 69 -23 94 -7 21 14 24 25 30
123 4 59 14 148 21 198 8 50 12 92 10 94 -4 4 -25 -67 -25 -84 0 -7 -11 -45
-24 -85 -20 -61 -37 -133 -40 -171 -1 -3 -5 -10 -10 -15 -13 -12 3 184 25 317
11 63 35 168 54 232 19 65 35 119 35 122 0 5 -77 36 -90 36 -5 0 -11 -3 -13
-7z"/>
<path d="M4063 3227 c28 -73 63 -207 89 -345 30 -155 33 -182 33 -377 0 -203
-1 -214 -32 -335 -70 -278 -150 -441 -337 -685 -82 -107 -101 -150 -33 -72 23
26 47 47 53 47 6 0 21 -12 35 -26 41 -44 57 -48 79 -22 40 47 158 225 198 298
88 161 156 396 171 585 9 118 0 297 -24 459 -24 162 -29 172 -84 200 l-48 25
-42 130 c-24 72 -47 131 -53 131 -6 0 -8 -6 -5 -13z"/>
<path d="M1639 2753 c-17 -42 -3 -252 22 -353 22 -87 55 -170 69 -170 4 0 15
17 24 39 17 37 17 40 -9 122 -23 70 -28 108 -32 224 -3 77 -10 146 -15 153
-18 21 -48 14 -59 -15z"/>
<path d="M3628 2640 c-3 -8 -9 -60 -13 -115 -14 -226 -87 -410 -232 -582 -25
-29 -41 -58 -38 -64 9 -14 35 10 91 82 139 181 208 383 202 595 -2 55 -6 92
-10 84z"/>
<path d="M1105 2295 c7 -100 55 -253 95 -305 16 -20 14 -9 -9 50 -16 42 -40
123 -54 180 -14 58 -28 114 -31 125 -3 11 -3 -11 -1 -50z"/>
<path d="M995 2296 c-19 -14 -19 -16 3 -118 64 -285 176 -523 348 -735 315
-388 781 -630 1252 -650 125 -6 132 -5 132 13 0 35 -15 41 -123 47 -269 16
-548 109 -792 262 -134 84 -301 214 -376 291 -172 180 -315 475 -371 768 -27
138 -34 151 -73 122z"/>
<path d="M1764 2236 c-3 -8 4 -34 17 -58 90 -179 305 -368 503 -443 60 -23 66
-23 66 -7 0 12 -16 23 -52 36 -183 63 -401 255 -489 427 -31 62 -36 68 -45 45z"/>
<path d="M3120 1879 c-157 -151 -221 -199 -334 -254 -124 -60 -217 -84 -373
-95 -187 -13 -265 -42 -415 -152 -89 -66 -123 -105 -106 -125 12 -15 90 -67
137 -92 20 -11 22 -11 17 6 -7 23 54 105 111 149 61 46 149 72 312 89 165 18
281 51 436 124 177 84 438 253 451 293 3 11 -1 27 -10 37 -9 10 -16 29 -16 42
0 38 -47 100 -74 98 -6 0 -67 -54 -136 -120z"/>
<path d="M971 1833 c6 -21 55 -128 109 -238 74 -149 114 -217 155 -265 103
-119 239 -252 315 -307 41 -29 98 -70 125 -90 62 -46 191 -114 199 -106 3 4 6
1 6 -5 0 -7 3 -11 8 -10 13 3 66 -15 97 -33 33 -19 173 -57 238 -64 89 -11
207 -13 201 -4 -3 5 -16 9 -30 9 -36 0 -207 45 -310 81 -429 151 -822 510
-1054 962 -30 59 -58 107 -62 107 -3 0 -2 -17 3 -37z"/>
<path d="M3598 1240 c-37 -31 -99 -78 -137 -104 -75 -50 -262 -146 -324 -166
-33 -10 -38 -16 -33 -34 3 -11 6 -24 6 -28 0 -12 92 27 214 90 142 72 366 240
366 274 0 33 -27 23 -92 -32z"/>
<path d="M2300 972 c26 -17 180 -53 252 -59 74 -6 316 23 333 40 7 7 3 8 -10
3 -47 -17 -320 -18 -438 -2 -64 9 -125 19 -135 22 -14 5 -15 4 -2 -4z"/>
<path d="M2478 703 c6 -2 18 -2 25 0 6 3 1 5 -13 5 -14 0 -19 -2 -12 -5z"/>
</g>
</svg>